<?xml version="1.0" encoding="UTF-8"?>
<svg version="1.1" xmlns="http://www.w3.org/2000/svg" width="128" height="128">
<path d="M0 0 C3.76606164 2.11706707 7.45780931 4.19576221 10.953125 6.7421875 C11.64510986 7.24395508 12.33709473 7.74572266 13.05004883 8.26269531 C13.77603271 8.79475586 14.5020166 9.32681641 15.25 9.875 C16.02432373 10.43799805 16.79864746 11.00099609 17.59643555 11.58105469 C22.54389482 15.18444674 27.46811726 18.81906714 32.38891602 22.45874023 C36.25287615 25.31457538 40.12492655 28.15927039 44 31 C44.66 31.4861377 45.32 31.97227539 46 32.47314453 C47.76241839 33.76512572 49.53492153 35.04149347 51.3125 36.3125 C52.27800781 37.00988281 53.24351563 37.70726562 54.23828125 38.42578125 C57.31959477 40.18217354 59.45726125 40.86808951 63 41 C65.42227393 40.11569199 65.42227393 40.11569199 67.6875 38.4375 C69.11449219 37.46490234 69.11449219 37.46490234 70.5703125 36.47265625 C71.71643854 35.65247056 72.85938178 34.82782822 74 34 C74.68288086 33.50483887 75.36576172 33.00967773 76.06933594 32.49951172 C80.06255418 29.5905159 84.0356234 26.65518078 88 23.70703125 C119.89967364 0 119.89967364 0 122 0 C122.06957011 8.51894615 122.12284666 17.03777322 122.15543652 25.5569334 C122.17107957 29.51291134 122.1922927 33.46869463 122.22631836 37.42456055 C122.25896078 41.24359355 122.27686325 45.06243956 122.28463173 48.88160133 C122.29016651 50.33723709 122.30097472 51.79286285 122.31719017 53.24841881 C122.33903021 55.29042903 122.34196431 57.33167071 122.34057617 59.3737793 C122.35056892 61.11584908 122.35056892 61.11584908 122.36076355 62.89311218 C121.94575175 66.46718476 121.27134153 68.21446796 119 71 C113.85242384 74.60390605 108.91188002 74.42717285 102.8671875 74.38818359 C101.86157776 74.39344055 100.85596802 74.39869751 99.81988525 74.40411377 C96.50476424 74.41728832 93.19012567 74.40858444 89.875 74.3984375 C87.56624255 74.40045896 85.25748573 74.403371 82.94873047 74.40713501 C78.11354484 74.41155493 73.27852564 74.40513783 68.44335938 74.39111328 C62.24932609 74.3740218 56.0556828 74.38386473 49.86166382 74.40183067 C45.0952664 74.41267736 40.32896125 74.40921806 35.56256104 74.4014473 C33.27882847 74.39944775 30.99508749 74.40189594 28.71136475 74.40888596 C25.51828861 74.41651476 22.32584183 74.40487558 19.1328125 74.38818359 C17.72059418 74.39729263 17.72059418 74.39729263 16.27984619 74.40658569 C11.14556345 74.35692769 7.3457951 74.04256542 3 71 C-0.09773597 67.2009928 -0.36822509 64.19390664 -0.34057617 59.3737793 C-0.34101425 58.72931351 -0.34145233 58.08484772 -0.34190369 57.42085266 C-0.3398249 55.30499254 -0.31653869 53.18993928 -0.29296875 51.07421875 C-0.28736952 49.60163302 -0.28310096 48.12904169 -0.28010559 46.65644836 C-0.26868248 42.79133521 -0.23923756 38.92656332 -0.20599365 35.06158447 C-0.17523783 31.11336889 -0.16158851 27.16509787 -0.14648438 23.21679688 C-0.11436504 15.47770945 -0.06319987 7.73890265 0 0 Z " fill="#FFFFFF" transform="translate(3,33)"/>
<path d="M0 0 C1.3122908 -0.00422974 1.3122908 -0.00422974 2.65109253 -0.00854492 C3.60807037 -0.00652069 4.56504822 -0.00449646 5.55102539 -0.00241089 C7.0660112 -0.00503937 7.0660112 -0.00503937 8.61160278 -0.00772095 C11.9573131 -0.01212992 15.30297076 -0.0092048 18.64868164 -0.00582886 C20.96891286 -0.00650217 23.28914402 -0.00747243 25.609375 -0.00872803 C30.4750231 -0.01020371 35.34065286 -0.00805459 40.20629883 -0.00338745 C46.45103922 0.00230975 52.69573664 -0.00096995 58.94047546 -0.00695992 C63.73246587 -0.01056901 68.52444605 -0.00942533 73.31643677 -0.00683212 C75.61939499 -0.00616382 77.92235413 -0.00698791 80.22531128 -0.00931168 C83.44067861 -0.01184388 86.6559758 -0.0079895 89.87133789 -0.00241089 C91.30680466 -0.00544724 91.30680466 -0.00544724 92.77127075 -0.00854492 C93.64613129 -0.0057251 94.52099182 -0.00290527 95.42236328 0 C96.18263321 0.00037703 96.94290314 0.00075405 97.72621155 0.0011425 C99.71118164 0.12698364 99.71118164 0.12698364 102.71118164 1.12698364 C102.71118164 1.78698364 102.71118164 2.44698364 102.71118164 3.12698364 C101.34448242 4.34109497 101.34448242 4.34109497 99.40649414 5.70901489 C98.686875 6.22230347 97.96725586 6.73559204 97.22583008 7.26443481 C96.43724609 7.81720093 95.64866211 8.36996704 94.83618164 8.93948364 C93.17719094 10.11897912 91.51834068 11.29867217 89.85961914 12.47854614 C89.00464844 13.08343872 88.14967773 13.6883313 87.26879883 14.31155396 C83.31350127 17.11907521 79.38865016 19.96823912 75.46118164 22.81448364 C69.883779 26.84355266 64.30286615 30.86775464 58.71118164 34.87698364 C58.12949219 35.29552612 57.54780273 35.7140686 56.94848633 36.14529419 C52.51710974 39.31583543 50.24751029 40.54712119 44.71118164 40.12698364 C37.79106791 36.90683827 31.75030734 31.71576918 25.75756836 27.0317688 C21.8300021 23.96418623 17.83652064 21.01279679 13.77368164 18.12698364 C13.20270752 17.72052612 12.6317334 17.3140686 12.04345703 16.89529419 C8.94526724 14.69569664 5.83432189 12.51537279 2.71508789 10.34573364 C2.06596436 9.89069458 1.41684082 9.43565552 0.74804688 8.96682739 C-0.50496316 8.08871233 -1.76184973 7.21609722 -3.02294922 6.34963989 C-4.48108118 5.32506337 -5.89061727 4.23194499 -7.28881836 3.12698364 C-7.28881836 2.46698364 -7.28881836 1.80698364 -7.28881836 1.12698364 C-4.51185618 0.20132958 -2.86446554 0.00142052 0 0 Z " fill="#FFFFFF" transform="translate(16.288818359375,20.873016357421875)"/>
</svg>
