<?xml version="1.0" encoding="UTF-8"?>
<svg version="1.1" xmlns="http://www.w3.org/2000/svg" width="128" height="128">
<path d="M0 0 C8.66892896 3.22891281 14.9945843 17.62511828 18.84375 25.61645508 C20.75085368 29.9046004 21.61375737 33.01576963 20.9296875 37.71875 C18.29201884 41.45544727 15.156855 44.49847816 11.9296875 47.71875 C17.66993937 60.82003075 26.00799349 71.76238967 39.33984375 77.8125 C41.17952031 78.51332916 43.05189495 79.12759309 44.9296875 79.71875 C45.41179687 79.15285156 45.89390625 78.58695312 46.390625 78.00390625 C47.33808594 76.90369141 47.33808594 76.90369141 48.3046875 75.78125 C48.93117188 75.05035156 49.55765625 74.31945312 50.203125 73.56640625 C52.57834494 71.02459849 53.55675597 70.75214685 57.0703125 70.4375 C61.66898981 70.77262628 64.66000656 72.08860822 68.6796875 74.21875 C69.37344482 74.57606201 70.06720215 74.93337402 70.78198242 75.30151367 C77.89811471 79.06229871 85.70196558 83.49759806 90.9296875 89.71875 C91.86122247 94.14354109 91.85539869 96.29654209 89.37109375 100.11328125 C83.05676532 107.47034282 71.58207733 119.04913767 61.78125 121.1875 C39.95696495 121.49380576 19.9576911 105.92555122 4.9296875 91.71875 C3.24352968 90.07180515 1.57398579 88.40748879 -0.0703125 86.71875 C-0.5653125 86.26886719 -1.0603125 85.81898437 -1.5703125 85.35546875 C-15.34211077 72.5081662 -28.34393627 51.53490593 -29.6953125 32.46875 C-29.40729203 26.69904957 -26.60578018 23.0963414 -23.0703125 18.71875 C-22.37035156 17.80738281 -21.67039062 16.89601563 -20.94921875 15.95703125 C-7.72565634 -0.84170575 -7.72565634 -0.84170575 0 0 Z " fill="#FFFFFF" transform="translate(33.0703125,3.28125)"/>
</svg>
