<?xml version="1.0" encoding="UTF-8"?>
<svg version="1.1" xmlns="http://www.w3.org/2000/svg" width="128" height="128">
<path d="M0 0 C9.69242413 6.95288386 16.11995831 16.46391612 18.3125 28.3125 C18.45761224 30.68452696 18.53322343 33.0612188 18.5625 35.4375 C18.58828125 36.67757812 18.6140625 37.91765625 18.640625 39.1953125 C18.26763738 48.00430714 14.38296132 55.70652261 10.25 63.3125 C9.76176758 64.22692871 9.27353516 65.14135742 8.77050781 66.08349609 C4.9661649 73.18124266 1.08189345 80.23527324 -2.859375 87.2578125 C-5.11837163 91.28363146 -7.3508035 95.32379029 -9.578125 99.3671875 C-10.6065168 101.23069267 -11.63527314 103.09399605 -12.66418457 104.95721436 C-13.34327421 106.18841367 -14.02126354 107.42022056 -14.69812012 108.65264893 C-15.64976248 110.38475085 -16.60603944 112.114304 -17.5625 113.84375 C-18.11679688 114.84986328 -18.67109375 115.85597656 -19.2421875 116.89257812 C-20.6875 119.3125 -20.6875 119.3125 -22.6875 121.3125 C-25.3125 121.4375 -25.3125 121.4375 -27.6875 121.3125 C-28.26697388 120.22086548 -28.26697388 120.22086548 -28.8581543 119.10717773 C-35.60608945 106.41133577 -42.37626486 93.74025353 -49.5 81.25 C-53.53055419 74.16327071 -57.52376027 67.06110024 -61.375 59.875 C-61.78532471 59.12404053 -62.19564941 58.37308105 -62.6184082 57.59936523 C-68.49038557 46.5162117 -69.77304395 34.02768905 -66.0625 21.9375 C-61.62257042 10.39677713 -54.1790533 1.6351528 -42.875 -3.625 C-28.67271883 -9.67070411 -13.01146335 -7.91714465 0 0 Z M-41.0625 22.6875 C-45.12641526 27.87782656 -46.2534443 32.74754613 -45.6875 39.3125 C-44.31271933 46.73930429 -39.64505858 50.98463588 -33.6875 55.3125 C-28.34552154 57.09315949 -21.97740031 57.3127261 -16.5546875 55.6640625 C-10.99898084 52.74918501 -6.8918862 47.9402517 -4.3125 42.3125 C-2.79945819 35.0498993 -3.79567732 29.57127916 -7.6875 23.3125 C-11.66160739 18.88636144 -15.93187497 15.72979167 -21.9375 15.0625 C-29.97808538 14.67027632 -35.59381517 16.73006798 -41.0625 22.6875 Z " fill="#FFFFFF" transform="translate(88.6875,6.6875)"/>
</svg>
